<?xml version="1.0" encoding="UTF-8"?>
<svg version="1.1" xmlns="http://www.w3.org/2000/svg" width="500" height="500">
<path d="M0 0 C165 0 330 0 500 0 C500 165 500 330 500 500 C335 500 170 500 0 500 C0 335 0 170 0 0 Z " fill="#FEFEFE" transform="translate(0,0)"/>
<path d="M0 0 C0.77410332 3.7143949 1.30277253 7.20453005 1 11 C-2.0625 13.5625 -2.0625 13.5625 -4.0078125 14.61328125 C-7.89075655 17.31611485 -9.90191732 21.84994635 -12 26 C-12 26.33 -12 26.66 -12 27 C-11.41992188 26.15695313 -10.83984375 25.31390625 -10.2421875 24.4453125 C-9.45391573 23.33797835 -8.66480869 22.23123846 -7.875 21.125 C-7.49601562 20.56941406 -7.11703125 20.01382813 -6.7265625 19.44140625 C-3.91928154 15.55800092 -1.65306515 14.06548448 3 13 C3 14.65 3 16.3 3 18 C2.09507812 18.17144531 1.19015625 18.34289062 0.2578125 18.51953125 C-4.27273571 20.5783775 -5.19090742 23.27410768 -7.125 27.6875 C-7.77145644 29.08815562 -8.41988307 30.48790366 -9.0703125 31.88671875 C-9.54488892 32.91647827 -9.54488892 32.91647827 -10.02905273 33.96704102 C-14.2558359 42.81703434 -19.35856722 48.49464295 -28.51171875 52.3203125 C-32.97170798 53.53858271 -37.4212791 53.30810085 -42 53 C-34.28378527 55.57207158 -26.19942949 54.4711535 -19 51 C-18.0409375 50.071875 -18.0409375 50.071875 -17.0625 49.125 C-15 48 -15 48 -12.97265625 48.33984375 C-2.90247922 51.43964866 2.5578313 57.09913937 7.75 66 C9.26291178 69.63098828 10.13991354 73.16269117 11 77 C10.67 72.71 10.34 68.42 10 64 C18.76097407 65.46016234 23.44598435 69.85025823 28.87109375 76.6796875 C29.24363281 77.11539063 29.61617188 77.55109375 30 78 C30.33 78 30.66 78 31 78 C37.01440558 78.29338564 40.70764244 81.04395087 45 85 C49.05394797 89.64621241 51.63765465 94.20476444 52.4375 100.375 C51.86797164 105.09394923 50.53474256 107.81241965 47 111 C41.61642302 114.09191921 36.23400147 115.82335868 30 115 C24.23489358 113.14693008 20.33539342 110.07184367 16 106 C16.96174355 109.46227679 17.86180552 110.88751612 20.6875 113.1875 C26.67176141 116.46190719 32.42485838 117.38050447 39.125 117.4375 C40.15947266 117.48680664 40.15947266 117.48680664 41.21484375 117.53710938 C45.06924727 117.57764326 46.82646175 117.1332401 49.91015625 114.765625 C54.52223445 108.6621645 55.00950455 99.45480285 54 92 C49.52905134 82.31294457 39.39960914 78.54051944 30 75 C30 74.01 30 73.02 30 72 C31.41396902 71.49242138 32.83131729 70.99425075 34.25 70.5 C35.03890625 70.2215625 35.8278125 69.943125 36.640625 69.65625 C39 69 39 69 43 69 C43.0928125 70.60875 43.0928125 70.60875 43.1875 72.25 C43.66145959 76.13531961 43.66145959 76.13531961 46.5625 78.4375 C47.366875 78.953125 48.17125 79.46875 49 80 C48.65066406 79.28714844 48.30132812 78.57429688 47.94140625 77.83984375 C45.40396239 72.49899166 43.394756 67.92133999 43 62 C42.34 62 41.68 62 41 62 C39.68373308 58.38026598 39 55.90432869 39 52 C40.485 52.495 40.485 52.495 42 53 C42 53.66 42 54.32 42 55 C42.66 55 43.32 55 44 55 C44 53.02 44 51.04 44 49 C43.01 49.99 43.01 49.99 42 51 C41 50 41 50 40.6875 46.3125 C40.75123428 41.86703372 42.06877593 39.4065577 45 36 C48.89875784 32.45567469 53.08012034 32.44421148 58.13671875 32.57421875 C62.70050656 33.25287205 66.37934809 35.17509576 70 38 C72.46324069 41.69486103 72.38991688 43.63293092 72 48 C70.5 49.9375 70.5 49.9375 69 51 C69.33 51.99 69.66 52.98 70 54 C70.33 53.34 70.66 52.68 71 52 C71.66 52 72.32 52 73 52 C73.17942163 55.94727588 73.09350689 58.5980513 71 62 C70.34 62 69.68 62 69 62 C68.97421875 62.556875 68.9484375 63.11375 68.921875 63.6875 C68.47626831 69.68293548 66.94927498 73.76741536 64 79 C68.0042343 75.50912907 69.62671065 73.35048061 70 68 C74.83628305 68.99043705 79.47618873 69.95698846 84 72 C83.67 72.99 83.34 73.98 83 75 C80.55859375 76.17578125 80.55859375 76.17578125 77.4375 77.3125 C69.94043693 80.28101605 63.42248396 84.06539233 59 91 C58.63090882 93.94691699 58.48313451 96.44615734 58.5625 99.375 C58.55541016 100.10460937 58.54832031 100.83421875 58.54101562 101.5859375 C58.60083499 106.73960624 59.5511792 110.44807429 62 115 C67.68468082 118.78978721 76.46001418 117.62416738 83.03515625 116.46484375 C87.73369809 115.16796116 91.64283259 113.67190186 95 110 C96.34772903 106.87866256 96.34772903 106.87866256 97 104 C96.5875 104.54269531 96.175 105.08539063 95.75 105.64453125 C90.64911355 111.96370978 86.55613742 114.51184242 78.5 115.375 C71.42101287 114.61653709 66.68327058 112.53477432 62 107 C60.10033846 103.20067691 60.40594223 99.12956663 61 95 C63.7824521 87.97713197 68.32801067 82.58138593 75 79 C78.4375 78.0625 78.4375 78.0625 81 78 C81.33 78.33 81.66 78.66 82 79 C82.47566406 78.25556641 82.47566406 78.25556641 82.9609375 77.49609375 C86.91647816 71.73761329 91.65576367 67.08836587 98 64 C100.3046875 64.31640625 100.3046875 64.31640625 102 65 C101.835 65.639375 101.67 66.27875 101.5 66.9375 C100.84067485 70.97586652 100.91996221 74.91807258 101 79 C101.14695312 78.24976563 101.29390625 77.49953125 101.4453125 76.7265625 C103.7732494 66.10367801 107.77159534 57.23953601 117 51 C121.02899918 48.78405045 124.43519498 48.52777879 129 49 C131.50518607 50.13918955 133.66342259 51.51717203 136 53 C139.25469015 54.08489672 141.70543209 54.13323992 145.125 54.125 C146.73761719 54.12886719 146.73761719 54.12886719 148.3828125 54.1328125 C150.92656396 54.29688975 150.92656396 54.29688975 152 53 C150.700625 53.0825 149.40125 53.165 148.0625 53.25 C142.62333031 53.23292254 138.66941782 51.700179 134 49 C133.39285156 48.65710938 132.78570312 48.31421875 132.16015625 47.9609375 C124.76536556 42.76278532 121.5732098 32.72678692 117.98681641 24.74511719 C117.64956543 24.02227539 117.31231445 23.29943359 116.96484375 22.5546875 C116.66570068 21.89710449 116.36655762 21.23952148 116.05834961 20.56201172 C114.98266729 18.62330482 114.98266729 18.62330482 111.75 18 C110.8425 18 109.935 18 109 18 C109 16.35 109 14.7 109 13 C111.69772283 13.07934479 113.46565913 13.51881345 115.4921875 15.34375 C119.18929781 19.55807263 122.16713867 24.1741079 125 29 C123.38337674 21.99463255 118.89808229 16.03482373 113.0625 11.9375 C112.381875 11.628125 111.70125 11.31875 111 11 C111.33 7.37 111.66 3.74 112 0 C122.55210262 3.0963104 129.83650499 10.66820032 137.3046875 18.40234375 C139.8154589 20.82214517 142.283288 22.71106213 145.1875 24.625 C153.35042997 30.08428437 158.82865803 36.32255348 161 46 C161.226875 47.010625 161.45375 48.02125 161.6875 49.0625 C161.790625 49.701875 161.89375 50.34125 162 51 C163.13480527 47.39006828 163.10015767 44.0157673 163.0625 40.25 C163.05347656 39.07953125 163.04445313 37.9090625 163.03515625 36.703125 C163.02355469 35.81109375 163.01195312 34.9190625 163 34 C166.58758097 37.38827092 169.71263892 40.60122868 172 45 C171.80222691 50.7967974 170.15201931 53.64465522 166.4375 58 C162.57613095 62.69023845 159.53980393 67.38637927 156.8125 72.8125 C150.81711764 84.50504574 143.6011641 91.29613095 131.14453125 96.1015625 C127.20282926 97.34753625 124.17260274 98 120 98 C119.875 90.375 119.875 90.375 121 87 C117.40113295 91.7597919 116.73738805 95.27877749 116.5 101.25 C115.9345301 114.00448767 110.69964307 126.34988855 101.33203125 135.2734375 C97.56362373 138.06344776 93.43423459 140.16359364 89.24243164 142.24853516 C86.00673115 143.86205243 83.4569244 145.34652165 81 148 C80.34 148 79.68 148 79 148 C79.165 146.88625 79.33 145.7725 79.5 144.625 C80.0455458 141.27967967 80.0455458 141.27967967 80 139 C79.55269531 139.58007812 79.10539063 140.16015625 78.64453125 140.7578125 C76.7712031 143.17836017 74.8870213 145.59011655 73 148 C72.2884375 148.92232422 72.2884375 148.92232422 71.5625 149.86328125 C69.31688938 152.69134713 67.50136904 154.90582218 64 156 C61.22749162 156.21326988 58.97749666 155.99539704 56.25 155.4375 C55.5075 155.293125 54.765 155.14875 54 155 C53.67 155.33 53.34 155.66 53 156 C50.10006684 156.48332219 47.95517408 156.52445306 45.328125 155.08203125 C39.51404021 150.53477687 35.85659908 144.19059281 32 138 C32 141.41099168 32.49145406 144.63088314 33 148 C31.98679687 147.41476562 30.97359375 146.82953125 29.9296875 146.2265625 C27.49725638 144.83363186 25.05744399 143.508325 22.5703125 142.2109375 C10.45913558 135.75713574 2.84251492 128.11769865 -2 115 C-2.4125 113.906875 -2.825 112.81375 -3.25 111.6875 C-3.98399415 108.07869544 -4.1956157 104.73597848 -4.375 101.0625 C-4.71805422 94.99756023 -5.8143884 91.13808323 -9 86 C-8.67 86.86625 -8.34 87.7325 -8 88.625 C-7.01268659 91.95718275 -6.83579026 94.55159538 -7 98 C-18.20182928 98.18067467 -29.31652997 92.6084023 -37.33984375 84.92578125 C-41.27524984 80.36071019 -43.92646054 75.07717402 -46.6796875 69.75 C-49.79897251 63.76097277 -52.68430492 58.64399849 -57.6171875 53.9765625 C-59.7346676 50.94988191 -59.97268458 48.67197283 -60 45 C-58.5909259 42.50838045 -57.37812553 40.69365397 -55.5625 38.5625 C-55.12873047 38.02173828 -54.69496094 37.48097656 -54.24804688 36.92382812 C-53.18309185 35.60141145 -52.09388467 34.29858823 -51 33 C-50.67 33.66 -50.34 34.32 -50 35 C-50.33 35.66 -50.66 36.32 -51 37 C-51.09608608 38.83128771 -51.12982579 40.66619959 -51.125 42.5 C-51.12757813 43.4796875 -51.13015625 44.459375 -51.1328125 45.46875 C-51.16940053 47.99431054 -51.16940053 47.99431054 -50 50 C-49.84144531 49.3709375 -49.68289062 48.741875 -49.51953125 48.09375 C-46.29685888 36.27134971 -40.32861806 28.83376936 -30.0625 22.0625 C-24.50120657 18.31713912 -19.75233246 13.52997167 -14.82421875 9 C-4.83499461 0 -4.83499461 0 0 0 Z " fill="#2F2F2F" transform="translate(194,140)"/>
<path d="M0 0 C3.465 -0.0825 6.93 -0.165 10.5 -0.25 C12.11358398 -0.30462402 12.11358398 -0.30462402 13.75976562 -0.36035156 C20.01701461 -0.43192895 24.83484142 0.29349109 30 4 C32.90304607 7.26592683 33.89568385 9.16547078 34.4375 13.5 C33.81026382 18.51788944 32.06820785 22.81618516 28 26 C27.34 26 26.68 26 26 26 C26.5775 26.85464844 27.155 27.70929688 27.75 28.58984375 C28.50012058 29.70564811 29.25011404 30.82153795 30 31.9375 C30.3815625 32.50146484 30.763125 33.06542969 31.15625 33.64648438 C34 37.88671875 34 37.88671875 34 39 C30.52025513 39.55703426 27.45576558 39.77651875 24 39 C21.27552262 36.36598379 19.53339966 33.45326589 18 30 C18 29.34 18 28.68 18 28 C15.03 28 12.06 28 9 28 C9 31.63 9 35.26 9 39 C6.03 39 3.06 39 0 39 C0 26.13 0 13.26 0 0 Z " fill="#313131" transform="translate(353,309)"/>
<path d="M0 0 C8 0 8 0 10.43359375 2.01953125 C11.09488281 2.94121094 11.75617188 3.86289062 12.4375 4.8125 C13.17742187 5.80507813 13.91734375 6.79765625 14.6796875 7.8203125 C15.44539062 8.86960937 16.21109375 9.91890625 17 11 C18.66076411 13.08581792 20.36115645 15.13415434 22.0625 17.1875 C23.361875 18.775625 24.66125 20.36375 26 22 C26.33 14.74 26.66 7.48 27 0 C29.97 0 32.94 0 36 0 C36 12.87 36 25.74 36 39 C28 39 28 39 26.08544922 37.84179688 C25.66279785 37.30619141 25.24014648 36.77058594 24.8046875 36.21875 C24.31613281 35.62320313 23.82757813 35.02765625 23.32421875 34.4140625 C22.84597656 33.78242188 22.36773437 33.15078125 21.875 32.5 C21.38902344 31.89929688 20.90304688 31.29859375 20.40234375 30.6796875 C16.81833118 26.21155512 13.43575377 21.58100503 10 17 C9.67 24.26 9.34 31.52 9 39 C6.03 39 3.06 39 0 39 C0 26.13 0 13.26 0 0 Z " fill="#313131" transform="translate(212,309)"/>
<path d="M0 0 C1.23556641 0.01740234 1.23556641 0.01740234 2.49609375 0.03515625 C3.32238281 0.04417969 4.14867188 0.05320312 5 0.0625 C5.63808594 0.07410156 6.27617188 0.08570313 6.93359375 0.09765625 C11.55211318 9.74095376 16.12671227 19.40093902 20.49609375 29.16015625 C21.01526367 30.31040283 21.01526367 30.31040283 21.54492188 31.48388672 C23.93359375 36.85839844 23.93359375 36.85839844 23.93359375 39.09765625 C20.96359375 39.09765625 17.99359375 39.09765625 14.93359375 39.09765625 C11.93359375 33.34765625 11.93359375 33.34765625 11.93359375 31.09765625 C5.66359375 31.09765625 -0.60640625 31.09765625 -7.06640625 31.09765625 C-7.72640625 33.07765625 -8.38640625 35.05765625 -9.06640625 37.09765625 C-9.39640625 37.75765625 -9.72640625 38.41765625 -10.06640625 39.09765625 C-13.03640625 39.09765625 -16.00640625 39.09765625 -19.06640625 39.09765625 C-16.7465461 31.4871798 -13.61830964 24.31663803 -10.34082031 17.08349609 C-9.43167952 15.07618034 -8.52983924 13.06569864 -7.62890625 11.0546875 C-2.71011953 0.12807748 -2.71011953 0.12807748 0 0 Z " fill="#323232" transform="translate(89.06640625,308.90234375)"/>
<path d="M0 0 C1.8125 0.0859375 1.8125 0.0859375 4 0.375 C4.721875 0.46523437 5.44375 0.55546875 6.1875 0.6484375 C8 1 8 1 9 2 C8.46575865 7.76481817 7.39092782 13.3659744 6.1875 19.0234375 C6.01371826 19.85082428 5.83993652 20.67821106 5.66088867 21.53067017 C5.29602686 23.26378426 4.9295507 24.99655923 4.56152344 26.72900391 C3.99736819 29.38740153 3.43975554 32.04711435 2.8828125 34.70703125 C2.52642841 36.39591499 2.16967099 38.08472 1.8125 39.7734375 C1.64580811 40.56922211 1.47911621 41.36500671 1.30737305 42.18490601 C0.11519313 47.76961374 0.11519313 47.76961374 -1 50 C-3.97 49.67 -6.94 49.34 -10 49 C-9.03644647 37.47835991 -9.03644647 37.47835991 -8 32 C-8.66 32 -9.32 32 -10 32 C-10.99 34.97 -11.98 37.94 -13 41 C-15.31 40.67 -17.62 40.34 -20 40 C-19.34844387 32.28854454 -17.73113675 24.95745735 -15.9375 17.4375 C-15.65583984 16.23802734 -15.37417969 15.03855469 -15.08398438 13.80273438 C-14.39399438 10.8673532 -13.69922991 7.93319129 -13 5 C-10.69 5.33 -8.38 5.66 -6 6 C-6.33 9.63 -6.66 13.26 -7 17 C-6.34 17 -5.68 17 -5 17 C-3.44104382 13.4254896 -2.55594484 10.09579145 -1.9375 6.25 C-1.10526316 1.10526316 -1.10526316 1.10526316 0 0 Z " fill="#323232" transform="translate(299,122)"/>
<path d="M0 0 C9.9 0 19.8 0 30 0 C30 2.31 30 4.62 30 7 C23.07 7 16.14 7 9 7 C9 9.97 9 12.94 9 16 C14.94 16 20.88 16 27 16 C27 18.31 27 20.62 27 23 C21.06 23 15.12 23 9 23 C9 25.97 9 28.94 9 32 C15.93 32 22.86 32 30 32 C30 34.31 30 36.62 30 39 C20.1 39 10.2 39 0 39 C0 26.13 0 13.26 0 0 Z " fill="#323232" transform="translate(310,309)"/>
<path d="M0 0 C9.9 0 19.8 0 30 0 C30 2.31 30 4.62 30 7 C23.07 7 16.14 7 9 7 C9 9.97 9 12.94 9 16 C14.94 16 20.88 16 27 16 C27 18.31 27 20.62 27 23 C21.06 23 15.12 23 9 23 C9 25.97 9 28.94 9 32 C15.93 32 22.86 32 30 32 C30 34.31 30 36.62 30 39 C20.1 39 10.2 39 0 39 C0 26.13 0 13.26 0 0 Z " fill="#323232" transform="translate(169,309)"/>
<path d="M0 0 C2.875 1.625 2.875 1.625 5.875 3.625 C4.72326645 6.09300047 3.82716435 7.67283565 1.875 9.625 C-0.45966204 9.30297765 -2.29591234 8.54647271 -4.4375 7.5625 C-8.90601656 6.00371515 -12.59679826 5.94579923 -16.9375 7.875 C-19.79300215 10.15940172 -20.92535124 12.17560188 -21.42578125 15.80859375 C-21.45041678 20.54682782 -21.32638684 23.85193694 -18.125 27.625 C-14.83712811 29.73129293 -12.23281452 29.84185273 -8.375 29.75 C-6.6425 29.70875 -4.91 29.6675 -3.125 29.625 C-3.125 25.665 -3.125 21.705 -3.125 17.625 C-0.485 17.625 2.155 17.625 4.875 17.625 C4.98292837 20.23027105 5.06224878 22.83108311 5.125 25.4375 C5.17527344 26.54448242 5.17527344 26.54448242 5.2265625 27.67382812 C5.32573919 33.15334042 5.32573919 33.15334042 3.0234375 35.5625 C-2.96226256 38.52270076 -8.49699567 39.57741118 -15.125 38.625 C-20.95599878 36.60336432 -25.87453262 34.04244564 -29.125 28.625 C-31.73446475 23.01417286 -31.89146537 17.71721443 -31.125 11.625 C-28.97868098 5.92297651 -25.4740799 2.53210864 -20.125 -0.375 C-14.01886953 -2.41037682 -5.99154463 -2.5457636 0 0 Z " fill="#313131" transform="translate(291.125,310.375)"/>
<path d="M0 0 C1.29808594 -0.00515625 2.59617187 -0.0103125 3.93359375 -0.015625 C7.2980839 0.23064554 9.55514047 0.78977919 12.5625 2.25 C11.8125 8 11.8125 8 9.5625 10.25 C9.02109375 9.92257812 8.4796875 9.59515625 7.921875 9.2578125 C5.05530933 8.03335233 2.9172013 8.05107854 -0.1875 8.125 C-1.17234375 8.14304687 -2.1571875 8.16109375 -3.171875 8.1796875 C-3.91953125 8.20289063 -4.6671875 8.22609375 -5.4375 8.25 C-5.7675 9.9 -6.0975 11.55 -6.4375 13.25 C-2.21064399 14.86389048 1.98114966 16.3801936 6.3125 17.6875 C9.95367369 18.92009075 12.45814574 19.86473445 14.5625 23.25 C15.02936441 27.45177965 14.99495834 30.06073955 13.5625 34 C10.04028969 37.9624866 6.19354085 39.86123426 0.9453125 40.63671875 C-5.92390532 40.91888209 -11.30000759 39.2322089 -17.4375 36.25 C-16.625 33.3125 -16.625 33.3125 -15.4375 30.25 C-14.4475 29.92 -13.4575 29.59 -12.4375 29.25 C-11.84453125 29.55679687 -11.2515625 29.86359375 -10.640625 30.1796875 C-7.71854192 31.59928105 -5.41729338 31.4452129 -2.1875 31.375 C-0.57101562 31.34792969 -0.57101562 31.34792969 1.078125 31.3203125 C1.89796875 31.29710937 2.7178125 31.27390625 3.5625 31.25 C4.2225 29.6 4.8825 27.95 5.5625 26.25 C4.7890625 26.07984375 4.015625 25.9096875 3.21875 25.734375 C-12.68780377 22.03334516 -12.68780377 22.03334516 -15.62109375 17.3671875 C-16.91891156 14.0015547 -17.1275455 10.75598873 -16.4375 7.25 C-11.64234305 1.12285501 -7.59309849 -0.03010148 0 0 Z " fill="#333333" transform="translate(413.4375,308.75)"/>
<path d="M0 0 C2.97 0 5.94 0 9 0 C11.97974749 5.72216996 14.73972427 11.52273639 17.3125 17.4375 C17.82425781 18.61183594 18.33601563 19.78617187 18.86328125 20.99609375 C20 24 20 24 20 27 C20.66 27 21.32 27 22 27 C22.12310547 26.2790918 22.24621094 25.55818359 22.37304688 24.81542969 C22.99999938 22.00000278 23.89026931 19.59830862 25.03125 16.953125 C25.42957031 16.02628906 25.82789063 15.09945313 26.23828125 14.14453125 C26.65464844 13.18933594 27.07101563 12.23414063 27.5 11.25 C28.12455078 9.79400391 28.12455078 9.79400391 28.76171875 8.30859375 C31.85956743 1.14043257 31.85956743 1.14043257 33 0 C34.51928038 -0.07179964 36.04167482 -0.08392007 37.5625 -0.0625 C38.38878906 -0.05347656 39.21507812 -0.04445313 40.06640625 -0.03515625 C40.70449219 -0.02355469 41.34257812 -0.01195312 42 0 C40.65656647 4.218721 39.08731243 8.23813578 37.28515625 12.28125 C36.76373047 13.45300781 36.24230469 14.62476563 35.70507812 15.83203125 C35.4351001 16.4348291 35.16512207 17.03762695 34.88696289 17.65869141 C34.06531806 19.49370631 33.24814057 21.3306597 32.43164062 23.16796875 C30.05241042 28.50143423 27.64147762 33.79021589 25 39 C22.03 39 19.06 39 16 39 C14.36175959 35.33900273 12.72614432 31.67684439 11.09277344 28.01367188 C10.26890858 26.16737449 9.44307104 24.32195777 8.6171875 22.4765625 C0 3.14043445 0 3.14043445 0 0 Z " fill="#323232" transform="translate(118,309)"/>
<path d="M0 0 C1.84269722 5.92295536 2.9611908 11.8887076 4 18 C4.99 18 5.98 18 7 18 C7.50286934 19.9575985 8.0022099 21.91610377 8.5 23.875 C8.7784375 24.96554688 9.056875 26.05609375 9.34375 27.1796875 C10 30 10 30 10 32 C9.34 32 8.68 32 8 32 C8.144375 32.72445312 8.28875 33.44890625 8.4375 34.1953125 C9.39550392 39.18491623 10.27607149 43.89267738 10 49 C7.36 49.33 4.72 49.66 2 50 C-0.15064778 44.55325074 -1.80653235 39.2306357 -3.078125 33.51953125 C-3.25382019 32.74365158 -3.42951538 31.96777191 -3.61053467 31.16838074 C-3.97641653 29.54301778 -4.33927878 27.91697233 -4.69921875 26.2902832 C-5.25144672 23.80599169 -5.82057532 21.32595794 -6.390625 18.84570312 C-6.74582411 17.25804313 -7.10002597 15.67015963 -7.453125 14.08203125 C-7.62386536 13.34547806 -7.79460571 12.60892487 -7.97052002 11.85005188 C-8.82192824 7.92238332 -9.16027712 4.87914253 -8 1 C-5.07175348 0.02391783 -3.04386724 -0.08226668 0 0 Z " fill="#313131" transform="translate(201,122)"/>
<path d="M0 0 C-5.02210215 6.30982065 -10.64754911 10.87996352 -17.1796875 15.5625 C-24.91261558 21.16522525 -30.56240639 27.77609209 -32.46875 37.35546875 C-32.70764537 39.23013378 -32.8629202 41.11515277 -33 43 C-36.59253815 37.61119277 -36.45372506 33.38773712 -36 27 C-33.08238506 15.91306323 -22.34961419 7.77273077 -13 2 C-8.6014672 -0.28514607 -4.89109933 -1.6813154 0 0 Z " fill="#F2F2F2" transform="translate(178,150)"/>
<path d="M0 0 C13.52857811 1.99601972 23.3692809 10.73022675 31.73828125 21.16796875 C34.99227633 25.89280991 34.37824033 32.48472825 34 38 C33 41.625 33 41.625 32 44 C31.67 44 31.34 44 31 44 C30.92523438 43.23816406 30.85046875 42.47632813 30.7734375 41.69140625 C29.27017315 29.88635974 24.23929246 23.19382058 15 16 C13.60820778 14.95294005 12.21245301 13.91112341 10.8125 12.875 C5.89138792 9.23008988 1.89007789 6.0138842 0 0 Z " fill="#F1F1F1" transform="translate(324,149)"/>
<path d="M0 0 C10.10076764 3.08634567 18.27054924 6.64825308 25.375 14.6875 C28.84179003 21.75441813 27.33938319 30.66993268 25 38 C23.15075507 40.83165629 22.00525005 42.49737497 19 44 C8.88478373 44.60808237 -0.99131321 45.01507449 -9.4375 38.625 C-11.94385728 36.05751206 -13.17869127 34.46774798 -14 31 C-13.505 29.515 -13.505 29.515 -13 28 C-12.484375 28.886875 -11.96875 29.77375 -11.4375 30.6875 C-8.67354011 34.83835792 -4.79412175 38.14773892 0.0234375 39.6171875 C7.02310951 40.9728552 12.87758414 39.43920056 19 36 C21.98609104 32.80061675 22.86218096 30.93027852 23.5 26.625 C22.53223346 19.6086926 18.98647792 13.98647792 14 9 C9.30908633 6.03851616 9.30908633 6.03851616 4 5 C3.67 5.66 3.34 6.32 3 7 C0 3.375 0 3.375 0 0 Z " fill="#EFEFEF" transform="translate(222,214)"/>
<path d="M0 0 C-1.75 4.875 -1.75 4.875 -4 6 C-4 5.34 -4 4.68 -4 4 C-12.58152965 6.81119075 -17.88206796 10.42297815 -22.08984375 18.52734375 C-23.99834489 23.7122417 -23.52653579 28.70238927 -22.3125 34 C-20.54367046 36.6953593 -19.06648407 37.09399334 -16 38 C-15.05125 38.37125 -14.1025 38.7425 -13.125 39.125 C-6.70937803 40.92137415 -1.97093684 40.09346642 3.921875 37.27734375 C7.10767408 35.31915522 8.8124488 33.02396783 11 30 C11.98457245 28.98480687 12.98125952 27.98090154 14 27 C12.69544468 32.25255168 11.48319704 36.72815501 6.8359375 40.00390625 C-1.29203021 44.41376107 -10.92591527 45.31703858 -20 44 C-23.26738458 42.08837666 -24.67188796 40.70037372 -26.27734375 37.2734375 C-27.86454537 30.08384314 -28.89796923 21.18041453 -25.78515625 14.32421875 C-20.33653983 7.72177768 -8.85699408 0 0 0 Z " fill="#F2F2F2" transform="translate(279,214)"/>
<path d="M0 0 C2.31 0.33 4.62 0.66 7 1 C6.48343377 8.89099452 4.90872332 16.33822331 3 24 C2.71511719 25.15371094 2.43023437 26.30742187 2.13671875 27.49609375 C1.43175937 30.33263645 0.71969301 33.1671658 0 36 C-2.31 35.67 -4.62 35.34 -7 35 C-6.34844387 27.28854454 -4.73113675 19.95745735 -2.9375 12.4375 C-2.65583984 11.23802734 -2.37417969 10.03855469 -2.08398438 8.80273438 C-1.39399438 5.8673532 -0.69922991 2.93319129 0 0 Z " fill="#323232" transform="translate(286,127)"/>
<path d="M0 0 C0.86093309 4.03715032 1.71521285 8.07564663 2.56347656 12.11547852 C2.85268666 13.48825597 3.14368011 14.86065902 3.43652344 16.23266602 C3.85826782 18.21013074 4.27348163 20.1888739 4.6875 22.16796875 C4.93886719 23.35672607 5.19023437 24.5454834 5.44921875 25.77026367 C5.93211552 28.60193094 6.11323049 31.13857111 6 34 C2.535 34.495 2.535 34.495 -1 35 C-2.02852457 30.82221482 -3.04329418 26.64139505 -4.0456543 22.45727539 C-4.38827873 21.03547299 -4.73459289 19.61455431 -5.0847168 18.19458008 C-5.58843852 16.14888233 -6.0786398 14.10033398 -6.56640625 12.05078125 C-6.86490479 10.82012939 -7.16340332 9.58947754 -7.47094727 8.3215332 C-7.9830246 5.10657608 -8.0336678 3.06921996 -7 0 C-4.3333581 -1.33332095 -2.83319697 -0.67102033 0 0 Z " fill="#333333" transform="translate(215,128)"/>
<path d="M0 0 C11.625 -0.25 11.625 -0.25 15 2 C15.61650485 7.54854369 15.61650485 7.54854369 15 10 C12.75694368 12.34286444 11.44267536 12.95363037 8.203125 13.29296875 C5.46875 13.1953125 2.734375 13.09765625 0 13 C0 8.71 0 4.42 0 0 Z " fill="#FCFCFC" transform="translate(362,317)"/>
<path d="M0 0 C12.57162616 1.85483009 21.93097283 9.42568794 30 19 C30 19.66 30 20.32 30 21 C25.4603781 19.42626441 21.76143666 17.04561591 17.8125 14.375 C17.15628662 13.93422119 16.50007324 13.49344238 15.82397461 13.03930664 C10.33822632 9.31302404 4.93298074 5.44548617 0 1 C0 0.67 0 0.34 0 0 Z " fill="#3D3D3D" transform="translate(324,149)"/>
<path d="M0 0 C1.32 0 2.64 0 4 0 C4.99 1.98 5.98 3.96 7 6 C8.32 5.67 9.64 5.34 11 5 C13.09230769 9.43076923 13.09230769 9.43076923 12.625 12.3125 C12.41875 12.869375 12.2125 13.42625 12 14 C10.68 14 9.36 14 8 14 C8 15.98 8 17.96 8 20 C6.0625 20.5625 6.0625 20.5625 4 21 C3.67 20.67 3.34 20.34 3 20 C3.00587411 18.24951389 3.05484934 16.49908976 3.125 14.75 C3.18410985 10.18080896 2.73391972 7.75913962 0 4 C0 2.68 0 1.36 0 0 Z " fill="#343434" transform="translate(220,134)"/>
<path d="M0 0 C-7.29380263 8.04833394 -17.40018897 15.00538932 -27 20 C-27.66 19.67 -28.32 19.34 -29 19 C-22.22567598 10.24585594 -11.88866974 -0.67935256 0 0 Z " fill="#393939" transform="translate(175,150)"/>
<path d="M0 0 C3.86241489 1.71347327 7.11824377 4.19506857 10.5 6.6875 C16.10437164 10.77021871 21.79959599 14.35617271 27.8671875 17.72265625 C28.57101563 18.14417969 29.27484375 18.56570312 30 19 C30 19.33 30 19.66 30 20 C21.29763761 19.79632769 14.17336499 17.85233692 7.6640625 11.84375 C4.19258262 8.0840245 1.7120667 4.86226943 0 0 Z " fill="#EEEEEE" transform="translate(168,201)"/>
<path d="M0 0 C-1.6619073 5.90900374 -5.93808953 10.98822453 -11.02734375 14.33203125 C-12.98950142 15.33758998 -14.94555768 16.20175043 -17 17 C-18.03125 17.4125 -19.0625 17.825 -20.125 18.25 C-23.19598137 19.05112557 -25.83978258 19.15048654 -29 19 C-24.6510614 15.5500668 -19.85513713 12.79309193 -15.10742188 9.93554688 C-10.85500035 7.32455201 -7.10828892 4.51721493 -3.4387207 1.13012695 C-2 0 -2 0 0 0 Z " fill="#EFEFEF" transform="translate(331,202)"/>
<path d="M0 0 C3.40198926 4.04998722 6 8.63626649 6 14 C2.04 14 -1.92 14 -6 14 C-5.19074658 11.85294019 -4.37750887 9.7073817 -3.5625 7.5625 C-3.11003906 6.36753906 -2.65757813 5.17257812 -2.19140625 3.94140625 C-1 1 -1 1 0 0 Z " fill="#F1F1F1" transform="translate(91,319)"/>
<path d="M0 0 C1.65 0 3.3 0 5 0 C4.24170616 6.44549763 4.24170616 6.44549763 2.9375 9.4375 C1.61345854 13.05654665 1.86976441 16.15804997 2 20 C0.35 20 -1.3 20 -3 20 C-2.51358785 13.15182898 -1.64006048 6.66957927 0 0 Z " fill="#333333" transform="translate(275,134)"/>
<path d="M0 0 C6.45415293 5.00526146 12.36610657 11.09831971 15 19 C9.76449076 18.34331241 7.86301199 16.34876276 4.58203125 12.41015625 C2.05418511 8.55909188 0.96155875 4.46895875 0 0 Z " fill="#F0F0F0" transform="translate(164,209)"/>
<path d="M0 0 C0.66 0.33 1.32 0.66 2 1 C1.67 3.64 1.34 6.28 1 9 C1.70125 9.185625 2.4025 9.37125 3.125 9.5625 C9.26960327 12.63480163 13.09030445 18.94783327 16 25 C15.67 25.99 15.34 26.98 15 28 C14.34773438 27.02417969 13.69546875 26.04835937 13.0234375 25.04296875 C12.14132277 23.75733346 11.25847106 22.47220362 10.375 21.1875 C9.94832031 20.54490234 9.52164062 19.90230469 9.08203125 19.24023438 C6.20997865 15.10362131 3.82265978 12.90219279 -1 11 C-1 12.65 -1 14.3 -1 16 C0.98 16 2.96 16 5 16 C5 16.33 5 16.66 5 17 C2.36 17 -0.28 17 -3 17 C-2.48517081 11.147205 -1.54642808 5.6702363 0 0 Z " fill="#E7E7E7" transform="translate(304,142)"/>
<path d="M0 0 C1.23095057 3.69285171 0.67363561 4.40769755 -1 7.8125 C-3.41976011 12.42221061 -6.28558482 16.53107641 -11 19 C-11.99 18.67 -12.98 18.34 -14 18 C-9.80374737 11.41806059 -5.82426355 5.2418372 0 0 Z " fill="#F2F2F2" transform="translate(335,209)"/>
<path d="M0 0 C0.33 0 0.66 0 1 0 C1.53181175 2.24743045 2.05007126 4.49807102 2.5625 6.75 C2.85253906 8.00296875 3.14257812 9.2559375 3.44140625 10.546875 C3.93444283 13.59473748 4.07666879 15.17641828 3 18 C2.67 18 2.34 18 2 18 C2 16.35 2 14.7 2 13 C-3.87133362 15.84583613 -6.67254722 18.66267211 -9.9375 24.25 C-10.33517578 24.8996875 -10.73285156 25.549375 -11.14257812 26.21875 C-12.10979893 27.80359372 -13.05703981 29.40060268 -14 31 C-15 28 -15 28 -14.1796875 25.94921875 C-6.65258493 12.90073855 -6.65258493 12.90073855 0 11 C-0.08378906 10.37351563 -0.16757813 9.74703125 -0.25390625 9.1015625 C-0.35574219 8.28429687 -0.45757812 7.46703125 -0.5625 6.625 C-0.66691406 5.81289062 -0.77132812 5.00078125 -0.87890625 4.1640625 C-1 2 -1 2 0 0 Z " fill="#DFDFDF" transform="translate(195,140)"/>
<path d="M0 0 C2.29862813 2.21349376 4.24789585 4.34267955 6.125 6.9375 C9.46414834 11.07720125 14.22815977 12.90594973 19 15 C19 15.33 19 15.66 19 16 C12.58093346 16.38514399 8.69677306 15.24731088 3.75 11.125 C0.71952121 7.4451329 0 4.75796657 0 0 Z " fill="#E7E7E7" transform="translate(228,268)"/>
<path d="M0 0 C1 3 1 3 0.3984375 4.90234375 C-1.79037276 9.25490155 -3.61230893 12.56239385 -8 15 C-10.99618515 15.59015768 -13.95142913 15.86716467 -17 16 C-15.74179908 13.48359816 -14.85906031 13.38448062 -12.3125 12.3125 C-6.57931326 9.57456881 -3.45450794 5.18176191 0 0 Z " fill="#F2F2F2" transform="translate(271,268)"/>
<path d="M0 0 C0.66 0 1.32 0 2 0 C3.07310858 3.27185553 2.89263102 5.42947592 2.0625 8.75 C1.86785156 9.54921875 1.67320312 10.3484375 1.47265625 11.171875 C1.23869141 12.07679688 1.23869141 12.07679688 1 13 C0.34 13 -0.32 13 -1 13 C-1 13.66 -1 14.32 -1 15 C-1.99 14.67 -2.98 14.34 -4 14 C-3.34 10.04 -2.68 6.08 -2 2 C-1.34 2 -0.68 2 0 2 C0 1.34 0 0.68 0 0 Z " fill="#8D8D8D" transform="translate(292,139)"/>
<path d="M0 0 C0 3 0 3 -1.4609375 4.5703125 C-2.40839844 5.33988281 -2.40839844 5.33988281 -3.375 6.125 C-4.00148438 6.64320313 -4.62796875 7.16140625 -5.2734375 7.6953125 C-8.35850445 10.02656218 -10.30921692 10.1114203 -14.125 10.0625 C-15.03507812 10.05347656 -15.94515625 10.04445313 -16.8828125 10.03515625 C-17.58148438 10.02355469 -18.28015625 10.01195312 -19 10 C-15.1873501 7.4582334 -11.160043 5.99634909 -6.91015625 4.31640625 C-4.26163123 3.11834862 -2.23020371 1.8432768 0 0 Z " fill="#E7E7E7" transform="translate(272,261)"/>
<path d="M0 0 C1.01707031 0.59748047 1.01707031 0.59748047 2.0546875 1.20703125 C8.23063632 4.72270295 14.09925337 7.2935247 21 9 C21 9.33 21 9.66 21 10 C9.40169523 10.74295191 9.40169523 10.74295191 4 6 C1.625 3.875 1.625 3.875 0 2 C0 1.34 0 0.68 0 0 Z " fill="#E3E3E3" transform="translate(227,261)"/>
<path d="M0 0 C0 1.65 0 3.3 0 5 C-0.9075 5.226875 -1.815 5.45375 -2.75 5.6875 C-6.48428873 7.19557814 -7.63968133 8.82577834 -10 12 C-10.99 12.33 -11.98 12.66 -13 13 C-10.94441446 8.32821469 -8.12731081 3.39794711 -3.8125 0.5625 C-2 0 -2 0 0 0 Z " fill="#3F3F3F" transform="translate(197,153)"/>
<path d="M0 0 C0.99 0.33 1.98 0.66 3 1 C3.38063221 3.3260857 3.71269945 5.66055264 4 8 C3 9 3 9 0.4375 9.0625 C-0.366875 9.041875 -1.17125 9.02125 -2 9 C-2.79953138 5.71303767 -3.09658936 4.28976808 -2 1 C-1.34 0.67 -0.68 0.34 0 0 Z " fill="#555555" transform="translate(229,139)"/>
<path d="M0 0 C1 3 1 3 0.375 5.4375 C-1.34451503 8.64205074 -2.9101282 10.0774131 -6 12 C-9.8125 12.75 -9.8125 12.75 -13 13 C-12.278125 12.443125 -11.55625 11.88625 -10.8125 11.3125 C-6.692424 7.92488196 -3.07422448 4.36863479 0 0 Z " fill="#EBEBEB" transform="translate(291,255)"/>
<path d="M0 0 C5.23272633 1.63958758 10.15196636 3.38952035 15 6 C14.67 6.99 14.34 7.98 14 9 C13.44570312 8.71125 12.89140625 8.4225 12.3203125 8.125 C11.59585938 7.75375 10.87140625 7.3825 10.125 7 C9.40570313 6.62875 8.68640625 6.2575 7.9453125 5.875 C6.05151023 4.86326254 6.05151023 4.86326254 4 5 C3.67 5.66 3.34 6.32 3 7 C0 3.375 0 3.375 0 0 Z " fill="#E8E8E8" transform="translate(222,214)"/>
<path d="M0 0 C0.66 0.33 1.32 0.66 2 1 C1.67 3.64 1.34 6.28 1 9 C1.66 9 2.32 9 3 9 C2.67 9.99 2.34 10.98 2 12 C1.01 11.67 0.02 11.34 -1 11 C-1 12.65 -1 14.3 -1 16 C0.98 16 2.96 16 5 16 C5 16.33 5 16.66 5 17 C2.36 17 -0.28 17 -3 17 C-2.48517081 11.147205 -1.54642808 5.6702363 0 0 Z " fill="#DFDFDF" transform="translate(304,142)"/>
<path d="M0 0 C0.495 0.70125 0.99 1.4025 1.5 2.125 C4.15375607 5.17681947 6.92293092 7.3279072 10.1953125 9.66796875 C12 11 12 11 14 13 C8.74587663 12.58791189 5.71663943 11.82282913 2 8 C0.48151073 5.03533048 0 3.34238213 0 0 Z " fill="#EDEDED" transform="translate(208,255)"/>
<path d="M0 0 C0.495 0.70125 0.99 1.4025 1.5 2.125 C4.19357809 5.2226148 7.00798229 7.2864114 10.390625 9.5703125 C10.92171875 10.04210937 11.4528125 10.51390625 12 11 C12 11.99 12 12.98 12 14 C7.05510598 12.30460776 3.13259174 10.21125055 0.6875 5.4375 C0 3 0 3 0 0 Z " fill="#E7E7E7" transform="translate(208,242)"/>
<path d="M0 0 C0.99 0 1.98 0 3 0 C3.50286934 1.9575985 4.0022099 3.91610377 4.5 5.875 C4.91765625 7.51082031 4.91765625 7.51082031 5.34375 9.1796875 C6 12 6 12 6 14 C5.34 14 4.68 14 4 14 C3.67 14.66 3.34 15.32 3 16 C2.01 10.72 1.02 5.44 0 0 Z " fill="#828282" transform="translate(205,140)"/>
<path d="M0 0 C0.66 0 1.32 0 2 0 C2.33 2.97 2.66 5.94 3 9 C1.68 9.33 0.36 9.66 -1 10 C-2 9 -2 9 -2.1875 5.5625 C-2 2 -2 2 0 0 Z " fill="#3E3E3E" transform="translate(225,145)"/>
<path d="M0 0 C1.32 0 2.64 0 4 0 C3.34 2.97 2.68 5.94 2 9 C0.68 8.67 -0.64 8.34 -2 8 C-1.125 1.125 -1.125 1.125 0 0 Z " fill="#434343" transform="translate(269,139)"/>
<path d="M0 0 C2.70931419 0.15481795 4.46584039 0.48172081 6.4453125 2.40234375 C7.67679642 3.89771708 8.8429837 5.4462924 10 7 C9.01 7.33 8.02 7.66 7 8 C6.67 7.34 6.34 6.68 6 6 C2.97065509 5.34227572 2.97065509 5.34227572 0 5 C0 3.35 0 1.7 0 0 Z " fill="#3B3B3B" transform="translate(303,153)"/>
<path d="M0 0 C0.33 0 0.66 0 1 0 C1.53181175 2.24743045 2.05007126 4.49807102 2.5625 6.75 C2.85253906 8.00296875 3.14257812 9.2559375 3.44140625 10.546875 C3.93444283 13.59473748 4.07666879 15.17641828 3 18 C2.67 18 2.34 18 2 18 C2 16.35 2 14.7 2 13 C1.01 12.67 0.02 12.34 -1 12 C-1.02698189 10.37509046 -1.04638757 8.75005367 -1.0625 7.125 C-1.07410156 6.22007812 -1.08570313 5.31515625 -1.09765625 4.3828125 C-1 2 -1 2 0 0 Z " fill="#D5D5D5" transform="translate(195,140)"/>
<path d="M0 0 C1.65 0.33 3.3 0.66 5 1 C-1.15034169 8.48291572 -1.15034169 8.48291572 -5 11 C-5.66 10.67 -6.32 10.34 -7 10 C-4.58443874 6.80800833 -2.31996462 4.25283313 1 2 C0.67 1.34 0.34 0.68 0 0 Z " fill="#DEDEDE" transform="translate(173,149)"/>
<path d="M0 0 C1.0828125 1.11375 1.0828125 1.11375 2.1875 2.25 C4.68799795 4.69493133 7.25154408 6.84580482 10 9 C10.66 9.66 11.32 10.32 12 11 C8.11617586 10.72903553 6.26826936 10.21461548 3.1875 7.75 C0.98782572 4.98469519 0.2972185 3.46754912 0 0 Z " fill="#DCDCDC" transform="translate(208,268)"/>
<path d="M0 0 C0.66 0 1.32 0 2 0 C2.46557346 3.18141867 2.50963377 5.25343123 0.6640625 7.95703125 C-0.84258024 9.6935608 -2.37936464 11.369718 -4 13 C-4.66 12.67 -5.32 12.34 -6 12 C-5.38125 11.13375 -4.7625 10.2675 -4.125 9.375 C-2.15345216 6.24371814 -1.01033009 3.53615531 0 0 Z " fill="#DEDEDE" transform="translate(262,208)"/>
<path d="M0 0 C0.33 0.66 0.66 1.32 1 2 C-0.33895768 5.49616727 -1.48923096 7.5940041 -4.4375 9.9375 C-7.22598689 11.09370188 -8.25238457 11.11939888 -11 10 C-10.113125 9.46375 -9.22625 8.9275 -8.3125 8.375 C-4.81711784 6.06688542 -2.55125342 3.30162207 0 0 Z " fill="#DFDFDF" transform="translate(291,268)"/>
<path d="M0 0 C1 2 1 2 0.3984375 3.83984375 C-1.75547248 8.2545371 -3.31850554 10.91933579 -8 13 C-6.62408154 8.9869045 -4.72281449 6.2333422 -2 3 C-1.34 2.01 -0.68 1.02 0 0 Z " fill="#E0E0E0" transform="translate(292,241)"/>
<path d="M0 0 C2.18840439 3.28260659 4.15885893 6.50818073 6 10 C5.67 10.66 5.34 11.32 5 12 C0.68393782 9.09326425 0.68393782 9.09326425 -1 7 C-0.875 3.1875 -0.875 3.1875 0 0 Z " fill="#D4D4D4" transform="translate(238,209)"/>
<path d="M0 0 C1.13732426 3.40401948 0.83989957 5.77456664 0.0625 9.25 C-0.13214844 10.14203125 -0.32679688 11.0340625 -0.52734375 11.953125 C-0.68332031 12.62859375 -0.83929688 13.3040625 -1 14 C-1.66 14 -2.32 14 -3 14 C-3.29341888 8.32723489 -3.00559652 5.00932754 0 0 Z " fill="#323232" transform="translate(281,137)"/>
<path d="M0 0 C2.25454705 2.92967241 3.95174928 5.4184767 5 9 C4.625 11.8125 4.625 11.8125 4 14 C3.34 13.67 2.68 13.34 2 13 C1.3671875 10.05859375 1.3671875 10.05859375 0.875 6.4375 C0.70742187 5.23996094 0.53984375 4.04242188 0.3671875 2.80859375 C0.24601563 1.88175781 0.12484375 0.95492187 0 0 Z " fill="#323232" transform="translate(218,137)"/>
<path d="M0 0 C0 0.99 0 1.98 0 3 C-3.80504787 4.79682816 -4.70600835 5.07349791 -9 4 C-6.03 2.68 -3.06 1.36 0 0 Z " fill="#D9D9D9" transform="translate(284,270)"/>
<path d="M0 0 C0 1.65 0 3.3 0 5 C-1.98 5 -3.96 5 -6 5 C-3.74193548 0 -3.74193548 0 0 0 Z " fill="#323232" transform="translate(197,153)"/>
<path d="M0 0 C0.33 0.99 0.66 1.98 1 3 C0.01 4.485 0.01 4.485 -1 6 C-1.66 6 -2.32 6 -3 6 C-4.36161311 6.96113866 -5.69855198 7.95884159 -7 9 C-5.44499019 5.18315774 -2.96404505 2.80804268 0 0 Z " fill="#E9E9E9" transform="translate(335,209)"/>
<path d="M0 0 C0.66 0.33 1.32 0.66 2 1 C0.875 3 0.875 3 -1 5 C-4.1875 5.25 -4.1875 5.25 -7 5 C-5.47058649 1.94117299 -3.05780454 1.31048766 0 0 Z " fill="#D8D8D8" transform="translate(261,279)"/>
<path d="M0 0 C4.95 1.98 4.95 1.98 10 4 C10 4.33 10 4.66 10 5 C3.375 4.25 3.375 4.25 0 2 C0 1.34 0 0.68 0 0 Z " fill="#DADADA" transform="translate(215,270)"/>
<path d="M0 0 C0.33 0.66 0.66 1.32 1 2 C-2.3 2 -5.6 2 -9 2 C-4 -1.33333333 -4 -1.33333333 0 0 Z " fill="#D9D9D9" transform="translate(262,269)"/>
<path d="M0 0 C1.32 0.33 2.64 0.66 4 1 C4 2.98 4 4.96 4 7 C2 5.1875 2 5.1875 0 3 C0 2.01 0 1.02 0 0 Z " fill="#DEDEDE" transform="translate(222,214)"/>
</svg>
